<?xml version="1.0" encoding="UTF-8"?>
<svg id="Layer_2" data-name="Layer 2" xmlns="http://www.w3.org/2000/svg" viewBox="0 0 788.29 268.75">
  <defs>
    <style>
      .cls-1 {
        fill: #fff;
      }
    </style>
  </defs>
  <g id="Layer_1-2" data-name="Layer 1">
    <path class="cls-1" d="M179.52,190.5c-2.87.62-8.41,11.2-10.69,14.3-25.12,34.16-68.37,67.73-113.3,63.61-15.02-1.38-27.26-10.98-31.46-25.51-6.52-22.56,3.46-45.14,5.93-67.38-8.81,5.56-27.39,11.25-29.76-3.74-3.54-22.41,30.64-20.61,41.6-32.89,14.39-43.45,26.96-92.51,63.69-123.19,37.27-31.12,98.31-11.59,77.95,41.91-9.63,25.31-32.06,44.42-52.48,60.95,27.99-.09,49.29,16.02,51.05,44.92,9.72-.42,18.8.28,27.41,5.08,16.48-31.57,54.33-65.05,89.18-36.07l1.39-.35c4.09-10.2,27.05-7.39,26.72,3.65-5.55,24.93-18.83,51.69-20.73,77.21-.32,4.29-1.18,13.71,3.22,15.73,11.85,5.42,25.23-11.97,31.56-19.94-1.15-30.91,3.4-60.9,11.28-90.63C361.95,80.97,390.94-3.05,439.56.65c15.88,1.21,27.2,12.68,28.44,28.52,3.23,41.24-52.12,126.93-76.17,161.64-2.96,4.28-19.69,25.11-19.57,27.98.19,4.49,7.45,10.32,11.7,11.22,15.15,3.22,30.77-8.19,41.56-17.53.35-38.49,35.38-103.71,82.03-87.96,11.65,3.93,20.53,14.49,22.2,26.77,5.19,38.07-33.32,66.59-65.74,76.17-3.72,3.8,13.95,5.08,15.54,5.03,13.42-.43,35.66-12.43,45.46-21.52,5.78-5.36,5.32-14.57,7.71-22.27,11.77-37.98,56.73-91.44,97.78-55.18,5.11-8.89,13.64-9.19,22.5-5.48,5.69,2.38,5.6,6.2,4.76,11.75-3.68,24.26-19.89,51.29-19.85,78.15.04,22.48,20.09,7.06,26.88-2.18-3.04-31.95,4.02-64.93,12.29-95.64,7.86-29.16,26.43-87.18,48.4-107.5s59.35-17.45,62.51,16.52c4.55,48.98-46.73,129.44-75.59,168.22-2.65,3.57-16.26,19.07-16.3,21.56-.06,4.62,5.06,9.42,9.17,10.75,11.34,3.66,24.95-2.95,34.06-9.4,4.05-2.86,19.39-18.89,21.76-18.37,4.69,1.03,13.17,15.36,12.98,20.01-.3,7.52-19.21,22.38-25.77,26.3-17.72,10.58-42.89,16.06-61.6,4.99-5.29-3.13-8.06-7.59-13.07-10.72-24.17,23.42-62.2,25.56-64.13-16.05-14.96,18.18-29.33,36.35-55.75,32.7-10.91-1.51-20.19-10.29-23.27-20.73-21.09,18.3-51.9,27-78.75,16.76-6.53-2.49-13.75-6.6-17.3-12.81-21.57,13.3-46.8,23.25-71.1,10.22-5.72-3.06-9.58-7.43-14.69-11.09-22.21,24.83-70.22,26.94-71.13-15.05-13.75,18.22-35.85,40.27-61.06,32.02-26.48-8.67-23.11-46.79-16.45-67.99h-20.5ZM755.76,30.91c-5.21-5.09-17.38,14.73-19.54,18.42-6.55,11.17-11.64,24.61-16.21,36.75-9.83,26.07-17.76,53.04-22.97,80.44,17.87-23.09,33.33-50.41,45.17-77.25,5.61-12.72,11.85-27.94,14.36-41.6.86-4.68,2.99-13.06-.8-16.76ZM82.02,113.56c1.87,1.41,18.44-10.16,21.31-12.16,16.65-11.59,43.45-34.04,50.86-53.09,5.98-15.39-4.42-20.78-18.39-16.38-23.33,7.35-48.51,58.76-53.78,81.63ZM436.78,32.91c-3.01-3.44-8.56.72-11.23,2.76-17.73,13.6-35.4,60.28-42.02,81.9-4.78,15.62-8.68,31.66-10.49,47.95l29.16-47.28c9.7-17.13,35.17-63.26,35.45-81.28.02-1.05-.26-3.36-.86-4.05ZM151.03,165.52c2.02-19.92-24.43-20.94-38.55-20.02-9.23.6-40.11,7.49-45.89,14.1-1.09,1.25-2.38,4.28-3.05,5.95-1.8,4.51-10.88,39.07-9.51,40.94,29.15-19.45,61.5-37.28,96.99-40.96ZM457.03,201.48c14.9-5.05,32.9-15.83,40.17-30.29,8.61-17.14,2.07-30.47-15.65-16.64-12.86,10.03-22.09,31.1-24.52,46.93ZM227.31,229.15c3.84,3.14,7.84.3,11.24-1.67,13.1-7.6,29.88-32.52,38.29-45.67,2.77-4.33,10.76-16.15,11.78-20.29,1.36-5.52-9.4-10.68-14.11-11.02-22.21-1.59-42.35,33.41-47.19,51.77-1.57,5.97-5.22,22.61,0,26.88ZM601.79,150.79c-23.5,2.82-43.02,43.29-44.63,64.31-.45,5.8-.54,16.91,8.12,15.17,11.57-2.32,28.87-26.75,35.56-36.46,4.17-6.04,18.44-27.02,19-33.04.67-7.28-12.34-10.67-18.05-9.99ZM137.02,196.5c-28.67,7.49-55.84,21.82-77.98,41.45-.04,2.42,13.02,1.48,15.2,1.22,18.08-2.2,42.68-17.84,54.75-31.22.96-1.07,8.79-10.77,8.02-11.46Z"/>
  </g>
</svg>